REM DIRINDEX 1\6,1\2\7,1\2\8,1\2\9,1\3\10,1\3\11,1\4\12,1\4\13,1\4\14,1\5\15,1\5\16,1\5\17
REM DIRNAME folder01,folder02,folder03,folder04,folder05,folder06,folder07,folder08,folder09,folder10,folder11,folder12,folder13,folder14,folder15,folder16,folder17
TITLE ""
FILE "P2Q_j_1408-1421.mp3" MP3
  TRACK 01 AUDIO
    TITLE "12:cjc040_0969"
    INDEX 01 00:00:00
  TRACK 02 AUDIO
    TITLE "0:"
    INDEX 01 00:01:17
  TRACK 03 AUDIO
    TITLE "13:cjc040_0970"
    INDEX 01 00:01:69
  TRACK 04 AUDIO
    TITLE "0:"
    INDEX 01 00:05:36
  TRACK 05 AUDIO
    TITLE "14:cjc040_0971"
    INDEX 01 00:06:12
  TRACK 06 AUDIO
    TITLE "0:"
    INDEX 01 00:11:37
  TRACK 07 AUDIO
    TITLE "12:cjc040_0972"
    INDEX 01 00:12:18
  TRACK 08 AUDIO
    TITLE "0:"
    INDEX 01 00:14:17
  TRACK 09 AUDIO
    TITLE "13:cjc040_0973"
    INDEX 01 00:15:07
  TRACK 10 AUDIO
    TITLE "0:"
    INDEX 01 00:16:69
  TRACK 11 AUDIO
    TITLE "14:cjc040_0974"
    INDEX 01 00:17:43
  TRACK 12 AUDIO
    TITLE "0:"
    INDEX 01 00:23:42
  TRACK 13 AUDIO
    TITLE "12:cjc040_0975"
    INDEX 01 00:24:24
  TRACK 14 AUDIO
    TITLE "0:"
    INDEX 01 00:25:72
  TRACK 15 AUDIO
    TITLE "13:cjc040_0976"
    INDEX 01 00:26:54
  TRACK 16 AUDIO
    TITLE "0:"
    INDEX 01 00:28:45
  TRACK 17 AUDIO
    TITLE "14:cjc040_0977"
    INDEX 01 00:29:23
  TRACK 18 AUDIO
    TITLE "0:"
    INDEX 01 00:32:45
  TRACK 19 AUDIO
    TITLE "12:cjc040_0978"
    INDEX 01 00:33:32
  TRACK 20 AUDIO
    TITLE "0:"
    INDEX 01 00:34:63
  TRACK 21 AUDIO
    TITLE "13:cjc040_0979"
    INDEX 01 00:35:43
  TRACK 22 AUDIO
    TITLE "0:"
    INDEX 01 00:37:26
  TRACK 23 AUDIO
    TITLE "14:cjc040_0980"
    INDEX 01 00:38:06
  TRACK 24 AUDIO
    TITLE "0:"
    INDEX 01 00:41:63
  TRACK 25 AUDIO
    TITLE "12:cjc040_0981"
    INDEX 01 00:42:41
  TRACK 26 AUDIO
    TITLE "0:"
    INDEX 01 00:43:56
  TRACK 27 AUDIO
    TITLE "13:cjc040_0982"
    INDEX 01 00:44:42
  TRACK 28 AUDIO
    TITLE "0:"
    INDEX 01 00:45:71
  TRACK 29 AUDIO
    TITLE "14:cjc040_0983"
    INDEX 01 00:46:54
  TRACK 30 AUDIO
    TITLE "0:"
    INDEX 01 00:49:69
  TRACK 31 AUDIO
    TITLE "12:cjc040_0984"
    INDEX 01 00:50:48
  TRACK 32 AUDIO
    TITLE "0:"
    INDEX 01 00:52:06
  TRACK 33 AUDIO
    TITLE "13:cjc040_0985"
    INDEX 01 00:52:59
  TRACK 34 AUDIO
    TITLE "0:"
    INDEX 01 00:54:60
  TRACK 35 AUDIO
    TITLE "14:cjc040_0986"
    INDEX 01 00:55:40
  TRACK 36 AUDIO
    TITLE "0:"
    INDEX 01 01:00:33
  TRACK 37 AUDIO
    TITLE "12:cjc040_0987"
    INDEX 01 01:01:15
  TRACK 38 AUDIO
    TITLE "0:"
    INDEX 01 01:02:57
  TRACK 39 AUDIO
    TITLE "13:cjc040_0988"
    INDEX 01 01:03:33
  TRACK 40 AUDIO
    TITLE "0:"
    INDEX 01 01:05:32
  TRACK 41 AUDIO
    TITLE "14:cjc040_0989"
    INDEX 01 01:06:14
  TRACK 42 AUDIO
    TITLE "0:"
    INDEX 01 01:09:54
  TRACK 43 AUDIO
    TITLE "12:cjc040_0990"
    INDEX 01 01:10:33
  TRACK 44 AUDIO
    TITLE "0:"
    INDEX 01 01:12:26
  TRACK 45 AUDIO
    TITLE "13:cjc040_0991"
    INDEX 01 01:13:06
  TRACK 46 AUDIO
    TITLE "0:"
    INDEX 01 01:14:41
  TRACK 47 AUDIO
    TITLE "14:cjc040_0992"
    INDEX 01 01:15:19
  TRACK 48 AUDIO
    TITLE "0:"
    INDEX 01 01:20:14
  TRACK 49 AUDIO
    TITLE "12:cjc040_0993"
    INDEX 01 01:20:65
  TRACK 50 AUDIO
    TITLE "0:"
    INDEX 01 01:22:44
  TRACK 51 AUDIO
    TITLE "13:cjc040_0994"
    INDEX 01 01:23:22
  TRACK 52 AUDIO
    TITLE "0:"
    INDEX 01 01:25:06
  TRACK 53 AUDIO
    TITLE "14:cjc040_0995"
    INDEX 01 01:25:55
  TRACK 54 AUDIO
    TITLE "0:"
    INDEX 01 01:30:36
  TRACK 55 AUDIO
    TITLE "12:cjc040_0996"
    INDEX 01 01:31:16
  TRACK 56 AUDIO
    TITLE "0:"
    INDEX 01 01:33:23
  TRACK 57 AUDIO
    TITLE "13:cjc040_0997"
    INDEX 01 01:33:74
  TRACK 58 AUDIO
    TITLE "0:"
    INDEX 01 01:35:20
  TRACK 59 AUDIO
    TITLE "14:cjc040_0998"
    INDEX 01 01:35:71
  TRACK 60 AUDIO
    TITLE "0:"
    INDEX 01 01:41:05
  TRACK 61 AUDIO
    TITLE "12:cjc040_0999"
    INDEX 01 01:41:59
  TRACK 62 AUDIO
    TITLE "0:"
    INDEX 01 01:43:27
  TRACK 63 AUDIO
    TITLE "13:cjc040_1000"
    INDEX 01 01:44:03
  TRACK 64 AUDIO
    TITLE "0:"
    INDEX 01 01:45:42
  TRACK 65 AUDIO
    TITLE "14:cjc040_1001"
    INDEX 01 01:46:18
  TRACK 66 AUDIO
    TITLE "0:"
    INDEX 01 01:50:62
  TRACK 67 AUDIO
    TITLE "12:cjc040_1002"
    INDEX 01 01:51:38
  TRACK 68 AUDIO
    TITLE "0:"
    INDEX 01 01:53:65
  TRACK 69 AUDIO
    TITLE "13:cjc040_1003"
    INDEX 01 01:54:44
  TRACK 70 AUDIO
    TITLE "0:"
    INDEX 01 01:56:53
  TRACK 71 AUDIO
    TITLE "14:cjc040_1004"
    INDEX 01 01:57:27
  TRACK 72 AUDIO
    TITLE "0:"
    INDEX 01 02:01:45
  TRACK 73 AUDIO
    TITLE "12:cjc040_1005"
    INDEX 01 02:02:26
  TRACK 74 AUDIO
    TITLE "0:"
    INDEX 01 02:04:02
  TRACK 75 AUDIO
    TITLE "13:cjc040_1006"
    INDEX 01 02:04:53
  TRACK 76 AUDIO
    TITLE "0:"
    INDEX 01 02:05:72
  TRACK 77 AUDIO
    TITLE "14:cjc040_1007"
    INDEX 01 02:06:50
  TRACK 78 AUDIO
    TITLE "0:"
    INDEX 01 02:10:65
  TRACK 79 AUDIO
    TITLE "12:cjc040_1008"
    INDEX 01 02:11:41
  TRACK 80 AUDIO
    TITLE "0:"
    INDEX 01 02:12:54
  TRACK 81 AUDIO
    TITLE "13:cjc040_1009"
    INDEX 01 02:13:34
  TRACK 82 AUDIO
    TITLE "0:"
    INDEX 01 02:15:62
  TRACK 83 AUDIO
    TITLE "14:cjc040_1010"
    INDEX 01 02:16:38
  TRACK 84 AUDIO
    TITLE "0:"
    INDEX 01 02:19:15
